<svg width="14" height="18" viewBox="0 0 14 18" fill="none" xmlns="http://www.w3.org/2000/svg">
<path d="M0 14.875V13.125H1.75V7C1.75 5.78958 2.11458 4.71771 2.84375 3.78437C3.57292 2.83646 4.52083 2.21667 5.6875 1.925V1.3125C5.6875 0.947916 5.81146 0.641666 6.05938 0.393749C6.32188 0.13125 6.63542 0 7 0C7.36458 0 7.67083 0.13125 7.91875 0.393749C8.18125 0.641666 8.3125 0.947916 8.3125 1.3125V1.925C9.47917 2.21667 10.4271 2.83646 11.1562 3.78437C11.8854 4.71771 12.25 5.78958 12.25 7V13.125H14V14.875H0ZM7 17.5C6.51875 17.5 6.10313 17.3323 5.75313 16.9969C5.41771 16.6469 5.25 16.2313 5.25 15.75H8.75C8.75 16.2313 8.575 16.6469 8.225 16.9969C7.88958 17.3323 7.48125 17.5 7 17.5ZM3.5 13.125H10.5V7C10.5 6.0375 10.1573 5.21354 9.47188 4.52812C8.78646 3.84271 7.9625 3.5 7 3.5C6.0375 3.5 5.21354 3.84271 4.52813 4.52812C3.84271 5.21354 3.5 6.0375 3.5 7V13.125Z" fill="#082215"/>
</svg>
