<svg width="14" height="14" viewBox="0 0 14 14" fill="none" xmlns="http://www.w3.org/2000/svg">
<path fill-rule="evenodd" clip-rule="evenodd" d="M2.1 1.4C1.91435 1.4 1.7363 1.47375 1.60503 1.60503C1.47375 1.7363 1.4 1.91435 1.4 2.1V11.9C1.4 12.0857 1.47375 12.2637 1.60503 12.395C1.7363 12.5263 1.91435 12.6 2.1 12.6H4.9C5.2866 12.6 5.6 12.9134 5.6 13.3C5.6 13.6866 5.2866 14 4.9 14H2.1C1.54305 14 1.0089 13.7788 0.615076 13.3849C0.221249 12.9911 0 12.457 0 11.9V2.1C0 1.54305 0.221249 1.0089 0.615076 0.615076C1.0089 0.221249 1.54305 0 2.1 0H4.9C5.2866 0 5.6 0.313401 5.6 0.7C5.6 1.0866 5.2866 1.4 4.9 1.4H2.1ZM9.30503 3.00503C9.57839 2.73166 10.0216 2.73166 10.295 3.00503L13.795 6.50503C14.0683 6.77839 14.0683 7.22161 13.795 7.49497L10.295 10.995C10.0216 11.2683 9.57839 11.2683 9.30503 10.995C9.03166 10.7216 9.03166 10.2784 9.30503 10.005L11.61 7.7H4.9C4.5134 7.7 4.2 7.3866 4.2 7C4.2 6.6134 4.5134 6.3 4.9 6.3H11.61L9.30503 3.99497C9.03166 3.72161 9.03166 3.27839 9.30503 3.00503Z" fill="white"/>
</svg>
