<svg width="16" height="12" viewBox="0 0 16 12" fill="none" xmlns="http://www.w3.org/2000/svg">
<path fill-rule="evenodd" clip-rule="evenodd" d="M0 0.8C0 0.358172 0.358172 0 0.8 0H15.2C15.6418 0 16 0.358172 16 0.8C16 1.24183 15.6418 1.6 15.2 1.6H0.8C0.358172 1.6 0 1.24183 0 0.8ZM0 5.6C0 5.15817 0.358172 4.8 0.8 4.8H15.2C15.6418 4.8 16 5.15817 16 5.6C16 6.04183 15.6418 6.4 15.2 6.4H0.8C0.358172 6.4 0 6.04183 0 5.6ZM0 10.4C0 9.95817 0.358172 9.6 0.8 9.6H15.2C15.6418 9.6 16 9.95817 16 10.4C16 10.8418 15.6418 11.2 15.2 11.2H0.8C0.358172 11.2 0 10.8418 0 10.4Z" fill="#081912"/>
</svg>
